<svg width="65" height="49" viewBox="0 0 65 49" fill="none" xmlns="http://www.w3.org/2000/svg">
<path d="M36.7373 38.5747C36.4192 37.9553 36.1885 37.1836 36.0454 36.2598C34.3748 38.1205 32.2032 39.0508 29.5309 39.0508C27.0009 39.0508 24.9045 38.3191 23.2418 36.8557C21.5791 35.3923 20.7478 33.5473 20.7478 31.3206C20.7478 28.5841 21.7622 26.4841 23.791 25.0208C25.8198 23.5574 28.7518 22.8177 32.5871 22.8017H35.7611V21.3234C35.7611 20.1302 35.4545 19.1755 34.8415 18.4595C34.2284 17.7434 33.2619 17.3861 31.9421 17.3875C30.7799 17.3875 29.869 17.666 29.2094 18.2231C28.5499 18.7801 28.2197 19.5427 28.219 20.5107H21.3209C21.3209 19.0161 21.7822 17.6323 22.7047 16.3591C23.6272 15.086 24.9321 14.0878 26.6195 13.3645C28.3047 12.6382 30.1981 12.2751 32.2995 12.2751C35.481 12.2751 38.0067 13.074 39.8764 14.6717C41.7461 16.2695 42.6806 18.5165 42.6799 21.4128V32.6093C42.6951 35.0597 43.0372 36.9116 43.7062 38.1651V38.5704L36.7373 38.5747ZM31.0334 33.7815C32.0139 33.791 32.9815 33.5579 33.8499 33.1028C34.7093 32.6496 35.3459 32.0418 35.76 31.2792V26.8346H33.182C29.7288 26.8346 27.8911 28.0278 27.6688 30.4142L27.6448 30.8195C27.6339 31.2181 27.7094 31.6143 27.8661 31.9809C28.0228 32.3476 28.2569 32.6761 28.5524 32.9438C29.1561 33.5015 29.983 33.7797 31.0334 33.7782V33.7815Z" fill="#3F5D82"/>
<path d="M10.3096 5.3205H6.91989V43.1882H10.3085V48.5087H0V0H10.3096V5.3205Z" fill="#478BB2"/>
<path d="M54 43.1882H57.3886V5.3205H54V0H64.3095V48.5087H54V43.1882Z" fill="#478BB2"/>
</svg>
