<svg xmlns="http://www.w3.org/2000/svg" viewBox="0 0 2175.16 449.8">
  <defs>
    <style>
      .cls-1 {
        fill: #3f5d82;
      }

      .cls-2 {
        fill: #478bb2;
      }
    </style>
  </defs>
  <title>Element 1</title>
  <g id="Ebene_2" data-name="Ebene 2">
    <g id="Ebene_1-2" data-name="Ebene 1">
      <g id="text">
        <g id="Apstasy_logo_long" data-name="Apstasy logo long">
          <path class="cls-1" d="M337.17,354.1q-4.38-8.53-6.35-21.25-23,25.62-59.79,25.62-34.83,0-57.72-20.15t-22.89-50.81q0-37.68,27.93-57.83t80.73-20.37h29.13V195.74q0-16.43-8.44-26.29t-26.61-9.84q-16,0-25.08,7.67t-9.09,21H195.68q0-20.58,12.7-38.11t35.93-27.49q23.2-10,52.13-10,43.8,0,69.54,22t25.73,61.88V299.34q.21,33.74,9.42,51v3.72Zm-52.35-44a54.55,54.55,0,0,0,25.85-6.23q11.83-6.24,17.53-16.74V246.33H304.54q-47.54,0-50.6,32.86l-.22,3.72a25.38,25.38,0,0,0,8.33,19.5Q270.36,310.09,284.82,310.07Z"/>
          <path class="cls-1" d="M653.68,237.79q0,54.77-24.86,87.72t-67.14,33q-35.92,0-58-25V445.21h-63.3V117.11H499l2.19,23.21q23-27.6,60-27.6,43.82,0,68.13,32.42t24.31,89.37Zm-63.3-4.59q0-33.07-11.72-51t-34.06-18q-29.79,0-41,22.78v97q11.61,23.43,41.4,23.44,45.33,0,45.34-74.26Z"/>
          <path class="cls-1" d="M906.24,237.79q0,54.77-24.87,87.72t-67.14,33q-35.93,0-58-25V445.21H692.88V117.11h58.7l2.19,23.21q23-27.6,60-27.6,43.8,0,68.12,32.42t24.33,89.37Zm-63.31-4.59q0-33.07-11.71-51t-34.08-18q-29.79,0-40.95,22.78v97q11.59,23.43,41.39,23.44,45.34,0,45.34-74.26Z"/>
          <path class="cls-1" d="M1073.78,288.61q0-11.61-11.49-18.29t-36.91-11.94q-84.56-17.74-84.55-71.84,0-31.54,26.17-52.68t68.45-21.14q45.12,0,72.17,21.25t27.05,55.2h-63.3q0-13.59-8.76-22.46t-27.38-8.86q-16,0-24.75,7.22a22.78,22.78,0,0,0-8.75,18.4q0,10.5,10,17t33.62,11.15q23.65,4.72,39.86,10.63,50.16,18.39,50.16,63.74,0,32.41-27.81,52.45t-71.86,20.05q-29.79,0-52.9-10.62t-36.25-29.13q-13.12-18.51-13.14-40h60q.87,16.88,12.47,25.85t31.1,9q18.18,0,27.49-6.89T1073.78,288.61Z"/>
          <path class="cls-1" d="M1251.86,58.86v58.25h40.51v46.43h-40.51V281.82q0,13.13,5,18.84t19.28,5.69a101.38,101.38,0,0,0,18.62-1.53v48a130.1,130.1,0,0,1-38.34,5.69q-66.59,0-67.9-67.24V163.54H1154V117.11h34.6V58.86Z"/>
          <path class="cls-1" d="M1465,354.1q-4.38-8.53-6.35-21.25-23,25.62-59.81,25.62-34.82,0-57.71-20.15t-22.89-50.81q0-37.68,27.92-57.83t80.73-20.37H1456V195.74q0-16.43-8.43-26.29T1421,159.61q-16,0-25.08,7.67t-9.09,21h-63.3q0-20.58,12.7-38.11t35.92-27.49q23.22-10,52.13-10,43.82,0,69.55,22t25.73,61.88V299.34q.23,33.74,9.42,51v3.72Zm-52.35-44a54.55,54.55,0,0,0,25.85-6.23q11.83-6.24,17.52-16.74V246.33h-23.65q-47.53,0-50.6,32.86l-.22,3.72a25.38,25.38,0,0,0,8.33,19.5Q1398.18,310.09,1412.62,310.07Z"/>
          <path class="cls-1" d="M1696.49,288.61q0-11.61-11.48-18.29t-36.92-11.94q-84.55-17.74-84.54-71.84,0-31.54,26.18-52.68t68.44-21.14q45.12,0,72.17,21.25t27.06,55.2h-63.32q0-13.59-8.76-22.46t-27.38-8.86q-16,0-24.75,7.22a22.82,22.82,0,0,0-8.76,18.4q0,10.5,10,17T1668,211.6q23.65,4.72,39.86,10.63Q1758,240.62,1758,286q0,32.41-27.82,52.45t-71.83,20.05q-29.79,0-52.9-10.62t-36.25-29.13q-13.12-18.51-13.12-40h60q.87,16.88,12.47,25.85t31.1,9q18.18,0,27.49-6.89T1696.49,288.61Z"/>
          <path class="cls-1" d="M1887.27,264.51l43.81-147.4H1999L1903.69,390.9l-5.25,12.47q-21.24,46.42-70.09,46.43a99.34,99.34,0,0,1-28-4.16V397.69l9.63.21q18,0,26.83-5.47t13.91-18.18l7.45-19.49-83-237.65h68.12Z"/>
          <path class="cls-2" d="M94.62,48.84H63.51V396.45h31.1v48.84H0V0H94.62Z"/>
          <path class="cls-2" d="M2080.54,396.45h31.1V48.84h-31.1V0h94.62V445.29h-94.62Z"/>
        </g>
      </g>
    </g>
  </g>
</svg>
