<?xml version="1.0" standalone="no"?>
<!DOCTYPE svg PUBLIC "-//W3C//DTD SVG 20010904//EN"
 "http://www.w3.org/TR/2001/REC-SVG-20010904/DTD/svg10.dtd">
<svg version="1.0" xmlns="http://www.w3.org/2000/svg"
 width="1040.000000pt" height="1040.000000pt" viewBox="0 0 1040.000000 1040.000000"
 preserveAspectRatio="xMidYMid meet">
<metadata>
Created by potrace 1.14, written by Peter Selinger 2001-2017
</metadata>
<g transform="translate(0.000000,1040.000000) scale(0.100000,-0.100000)"
fill="#000000" stroke="none">
<path d="M0 5240 l0 -3880 28 0 c15 0 50 0 77 -1 28 -1 64 -1 80 0 17 1 53 1
80 0 28 -1 64 -1 80 0 17 1 53 1 80 0 28 -1 64 -1 80 0 17 1 53 1 80 0 28 -1
64 -1 80 0 17 1 53 1 80 0 28 -1 64 -1 80 0 17 1 53 1 80 0 28 -1 64 -1 80 0
17 1 53 1 80 0 28 -1 64 0 80 0 17 1 99 0 183 -1 85 -2 156 0 159 5 2 4 9 4
15 1 9 -6 103 -9 140 -5 4 1 7 192 8 426 l0 425 -270 0 -270 0 -1 28 c0 15 -1
1377 -2 3027 l0 3000 239 2 c131 1 254 2 272 3 l32 0 0 425 0 425 -825 0 -825
0 0 -3880z"/>
<path d="M8638 9048 c1 -40 2 -80 2 -88 0 -8 0 -40 0 -70 1 -30 1 -70 1 -87 0
-18 -1 -44 -1 -58 0 -14 0 -33 0 -42 0 -10 0 -29 1 -43 0 -14 0 -32 0 -40 -1
-8 -1 -26 0 -40 0 -14 0 -29 0 -35 0 -5 -1 -50 -1 -100 0 -49 0 -109 0 -132
l0 -43 192 -1 c106 0 228 0 271 1 57 1 77 -2 78 -12 0 -17 0 -5984 0 -6023
l-1 -30 -270 3 -270 3 -1 -33 c-1 -18 0 -37 1 -43 1 -5 1 -26 1 -45 0 -19 0
-47 0 -62 0 -16 -1 -36 -1 -45 0 -10 0 -29 1 -43 0 -14 0 -32 0 -40 -1 -8 -1
-26 0 -40 0 -14 0 -31 0 -37 0 -7 -1 -74 -1 -148 0 -74 0 -143 0 -152 0 -10 0
-29 1 -43 0 -14 1 -29 1 -35 0 -5 -1 -14 -2 -20 -1 -5 -2 -23 -1 -39 1 -20 5
-27 16 -23 8 4 16 3 19 -1 4 -7 27 -7 151 -3 17 1 99 0 183 -1 85 -2 156 0
159 5 2 4 9 4 15 1 16 -10 212 -9 228 1 7 5 11 4 8 -1 -7 -10 212 -11 229 -1
5 4 13 4 17 0 9 -9 211 -7 226 2 7 5 11 4 8 -1 -7 -10 212 -11 229 -1 5 4 13
4 17 0 5 -5 100 -8 139 -4 4 1 7 1747 7 3881 l0 3880 -827 0 -828 0 3 -72z"/>
<path d="M5057 7154 c-1 -1 -45 -4 -97 -8 -52 -4 -108 -9 -125 -11 -16 -3 -48
-7 -70 -9 -41 -5 -154 -29 -215 -46 -153 -42 -216 -63 -299 -102 -25 -12 -48
-22 -51 -23 -28 -5 -219 -117 -272 -159 -14 -12 -41 -32 -59 -46 -46 -35 -157
-146 -200 -200 -45 -56 -119 -172 -143 -225 -11 -22 -23 -49 -29 -59 -20 -41
-49 -139 -73 -251 -2 -11 -6 -55 -9 -97 l-4 -78 37 -1 c132 -4 168 -3 179 4 6
4 14 4 17 -2 4 -6 18 -6 36 -1 17 5 30 6 30 2 0 -9 303 -7 318 1 6 4 13 3 16
-2 4 -6 18 -6 36 -1 17 5 30 6 30 2 0 -9 143 -8 157 1 7 4 14 3 17 -2 4 -6 18
-6 36 -1 17 5 30 5 30 1 0 -8 150 -5 158 4 3 3 7 25 9 48 5 61 31 145 61 197
68 117 219 212 377 237 16 2 78 6 137 7 151 5 262 -17 366 -72 110 -58 233
-243 247 -372 2 -14 6 -51 10 -83 6 -48 9 -228 6 -314 l-1 -21 -337 -1 c-186
-1 -369 -3 -408 -6 -143 -10 -282 -26 -355 -40 -13 -3 -42 -7 -64 -11 -21 -3
-75 -15 -120 -26 -45 -11 -88 -21 -96 -23 -74 -15 -305 -110 -391 -160 -33
-19 -62 -35 -65 -35 -13 0 -162 -119 -216 -173 -71 -70 -128 -134 -128 -142 0
-4 -11 -21 -25 -39 -27 -36 -113 -204 -118 -233 -2 -10 -7 -27 -11 -38 -19
-49 -26 -74 -35 -125 -20 -104 -23 -125 -25 -196 -2 -40 -6 -76 -8 -80 -3 -5
-4 -18 -1 -29 2 -11 5 -54 7 -95 3 -73 20 -180 36 -230 4 -14 14 -45 21 -70 7
-25 26 -71 41 -103 16 -31 28 -62 28 -67 0 -6 4 -10 9 -10 5 0 12 -11 15 -25
4 -14 11 -25 16 -25 6 0 10 -5 10 -11 0 -38 209 -260 310 -329 13 -8 28 -21
36 -28 7 -6 16 -12 19 -12 4 0 20 -9 35 -20 76 -54 299 -149 390 -166 14 -3
48 -11 75 -18 28 -7 60 -12 73 -11 12 1 22 -1 22 -4 0 -12 368 -22 417 -11 19
5 33 4 33 -1 0 -6 7 -6 18 -1 14 8 82 21 114 23 4 0 22 5 40 10 51 16 72 21
88 21 8 0 20 4 25 8 6 4 28 13 50 20 69 22 255 118 255 133 0 4 6 7 13 7 8 0
22 9 32 20 10 11 21 20 26 20 9 0 65 49 138 120 l57 55 23 -105 c12 -58 26
-109 31 -115 5 -5 8 -12 7 -15 -1 -3 9 -33 23 -67 21 -54 28 -63 50 -63 184
-3 1084 1 1088 5 11 11 2 63 -19 110 -12 28 -20 50 -18 51 2 0 -1 7 -7 15 -6
8 -15 28 -19 44 -12 45 -12 45 -15 48 -8 10 -48 208 -56 280 -2 20 -6 56 -9
80 -12 99 -17 388 -19 1317 -2 542 -6 1005 -10 1030 -4 25 -8 52 -10 60 -1 8
-6 33 -10 55 -18 91 -58 219 -93 292 -20 43 -37 81 -37 84 -2 12 -106 166
-132 195 -38 43 -130 137 -151 154 -172 143 -403 263 -585 306 -5 1 -9 2 -10
4 -17 13 -266 56 -383 66 -53 4 -344 12 -348 8z m666 -2681 l-1 -352 -27 -48
c-39 -66 -148 -172 -221 -215 -80 -48 -202 -101 -261 -113 -10 -2 -36 -7 -58
-13 -22 -5 -48 -8 -58 -6 -9 1 -17 -1 -17 -4 0 -9 -170 -7 -233 2 -208 30
-375 176 -415 361 -24 110 4 289 63 405 31 62 145 180 193 201 17 8 32 17 32
21 0 5 6 8 13 8 6 0 25 7 40 15 30 15 114 43 157 51 14 3 41 9 60 14 19 5 71
12 115 16 44 4 81 7 82 8 1 1 122 1 269 1 l267 0 0 -352z"/>
</g>
</svg>
